<svg width="345" height="346" viewBox="0 0 345 346" fill="none" xmlns="http://www.w3.org/2000/svg">
<g id="Arrow 3">
<g id="Arrow 1">
<path id="Vector 215" d="M173.192 4.22429C174.105 3.18622 174.025 1.5861 173.013 0.650334C172.001 -0.285444 170.439 -0.202523 169.526 0.835548L173.192 4.22429ZM173.078 345.247C174.442 345.263 175.56 344.143 175.577 342.745L175.843 319.972C175.86 318.574 174.768 317.428 173.404 317.412C172.041 317.396 170.922 318.516 170.906 319.914L170.668 340.157L150.917 339.926C149.554 339.91 148.435 341.03 148.419 342.427C148.403 343.825 149.495 344.971 150.858 344.987L173.078 345.247ZM171.633 337.296C170.745 336.236 169.186 336.116 168.151 337.027C167.117 337.938 166.998 339.535 167.887 340.595L171.633 337.296ZM161.481 332.334C162.295 333.455 163.842 333.687 164.936 332.852C166.03 332.017 166.257 330.432 165.443 329.311L161.481 332.334ZM159.705 320.994C158.943 319.835 157.409 319.529 156.278 320.311C155.147 321.093 154.848 322.666 155.61 323.824L159.705 320.994ZM150.046 314.987C150.763 316.175 152.284 316.542 153.444 315.807C154.604 315.071 154.963 313.511 154.246 312.323L150.046 314.987ZM149.155 303.544C148.479 302.33 146.971 301.909 145.786 302.603C144.602 303.296 144.19 304.842 144.866 306.055L149.155 303.544ZM139.974 296.925C140.611 298.161 142.104 298.633 143.31 297.98C144.516 297.327 144.978 295.796 144.342 294.56L139.974 296.925ZM139.813 285.408C139.216 284.152 137.738 283.63 136.512 284.242C135.286 284.855 134.776 286.369 135.373 287.626L139.813 285.408ZM131.066 278.176C131.623 279.452 133.084 280.022 134.329 279.45C135.573 278.879 136.131 277.382 135.574 276.106L131.066 278.176ZM131.63 266.668C131.114 265.375 129.672 264.756 128.41 265.286C127.148 265.816 126.543 267.294 127.059 268.587L131.63 266.668ZM123.359 258.867C123.834 260.177 125.255 260.844 126.533 260.357C127.812 259.87 128.463 258.413 127.989 257.104L123.359 258.867ZM124.66 247.42C124.228 246.094 122.83 245.379 121.536 245.821C120.243 246.264 119.544 247.698 119.975 249.023L124.66 247.42ZM116.918 239.063C117.304 240.403 118.678 241.167 119.985 240.77C121.293 240.373 122.04 238.965 121.653 237.625L116.918 239.063ZM118.982 227.728C118.642 226.375 117.296 225.561 115.976 225.91C114.655 226.259 113.86 227.639 114.2 228.993L118.982 227.728ZM111.841 218.845C112.133 220.21 113.449 221.074 114.781 220.774C116.113 220.474 116.957 219.125 116.665 217.76L111.841 218.845ZM114.71 207.719C114.469 206.343 113.185 205.429 111.843 205.678C110.501 205.926 109.609 207.242 109.85 208.618L114.71 207.719ZM108.24 198.311C108.429 199.695 109.678 200.659 111.028 200.464C112.378 200.269 113.32 198.989 113.13 197.605L108.24 198.311ZM111.94 187.433C111.805 186.042 110.595 185.028 109.238 185.167C107.882 185.306 106.891 186.547 107.026 187.937L111.94 187.433ZM106.224 177.512C106.303 178.907 107.47 179.972 108.832 179.89C110.193 179.808 111.233 178.611 111.153 177.215L106.224 177.512ZM110.784 166.967C110.763 165.57 109.64 164.455 108.277 164.478C106.914 164.5 105.825 165.652 105.847 167.049L110.784 166.967ZM105.908 156.609C105.87 158.006 106.944 159.169 108.307 159.207C109.671 159.245 110.806 158.143 110.844 156.746L105.908 156.609ZM111.341 146.536C111.439 145.142 110.416 143.931 109.056 143.831C107.696 143.731 106.514 144.78 106.416 146.174L111.341 146.536ZM107.38 135.76C107.221 137.148 108.189 138.405 109.543 138.568C110.898 138.731 112.125 137.738 112.284 136.349L107.38 135.76ZM113.681 126.203C113.903 124.823 112.991 123.522 111.646 123.296C110.3 123.07 109.03 124.004 108.809 125.383L113.681 126.203ZM110.698 115.105C110.415 116.472 111.266 117.815 112.6 118.105C113.934 118.394 115.245 117.521 115.528 116.154L110.698 115.105ZM117.823 106.219C118.168 104.867 117.378 103.485 116.059 103.132C114.739 102.779 113.39 103.59 113.045 104.942L117.823 106.219ZM115.856 94.8799C115.45 96.2144 116.177 97.6327 117.479 98.0476C118.781 98.4626 120.165 97.7171 120.571 96.3825L115.856 94.8799ZM123.771 86.6509C124.237 85.3369 123.575 83.8857 122.293 83.4096C121.011 82.9334 119.595 83.6126 119.13 84.9265L123.771 86.6509ZM122.814 75.2156C122.291 76.5067 122.888 77.9871 124.148 78.5223C125.407 79.0576 126.852 78.4448 127.375 77.1538L122.814 75.2156ZM131.405 67.8016C131.984 66.5358 131.452 65.0294 130.217 64.437C128.982 63.8447 127.512 64.3906 126.933 65.6565L131.405 67.8016ZM131.487 56.2425C130.855 57.4811 131.321 59.01 132.529 59.6575C133.737 60.3049 135.229 59.8257 135.862 58.5872L131.487 56.2425ZM140.66 49.6588C141.343 48.4488 140.94 46.9009 139.76 46.2015C138.58 45.502 137.069 45.9159 136.386 47.1259L140.66 49.6588ZM141.672 38.1958C140.941 39.3759 141.281 40.9395 142.432 41.6884C143.583 42.4372 145.109 42.0876 145.84 40.9076L141.672 38.1958ZM151.4 32.3237C152.177 31.1747 151.899 29.5982 150.778 28.8026C149.657 28.007 148.119 28.2935 147.342 29.4425L151.4 32.3237ZM153.265 21.0325C152.446 22.1503 152.666 23.7365 153.756 24.5755C154.846 25.4144 156.394 25.1884 157.213 24.0706L153.265 21.0325ZM163.396 15.9537C164.255 14.8678 164.093 13.2743 163.034 12.3944C161.975 11.5146 160.42 11.6817 159.561 12.7676L163.396 15.9537ZM166.094 4.80346C165.198 5.85764 165.305 7.45608 166.333 8.37366C167.361 9.29124 168.921 9.1805 169.817 8.12633L166.094 4.80346ZM174.874 340.948C173.91 339.936 172.824 338.717 171.633 337.296L167.887 340.595C169.132 342.082 170.29 343.382 171.341 344.485L174.874 340.948ZM165.443 329.311C163.629 326.813 161.705 324.035 159.705 320.994L155.61 323.824C157.651 326.928 159.619 329.77 161.481 332.334L165.443 329.311ZM154.246 312.323C152.572 309.549 150.869 306.62 149.155 303.544L144.866 306.055C146.609 309.183 148.341 312.163 150.046 314.987L154.246 312.323ZM144.342 294.56C142.825 291.615 141.312 288.562 139.813 285.408L135.373 287.626C136.895 290.83 138.433 293.932 139.974 296.925L144.342 294.56ZM135.574 276.106C134.234 273.039 132.917 269.892 131.63 266.668L127.059 268.587C128.367 271.863 129.706 275.061 131.066 278.176L135.574 276.106ZM127.989 257.104C126.842 253.938 125.73 250.708 124.66 247.42L119.975 249.023C121.063 252.367 122.194 255.65 123.359 258.867L127.989 257.104ZM121.653 237.625C120.716 234.376 119.824 231.076 118.982 227.728L114.2 228.993C115.056 232.4 115.964 235.757 116.918 239.063L121.653 237.625ZM116.665 217.76C115.958 214.453 115.305 211.105 114.71 207.719L109.85 208.618C110.456 212.068 111.121 215.478 111.841 218.845L116.665 217.76ZM113.13 197.605C112.671 194.247 112.273 190.855 111.94 187.433L107.026 187.937C107.365 191.428 107.772 194.887 108.24 198.311L113.13 197.605ZM111.153 177.215C110.961 173.825 110.837 170.408 110.784 166.967L105.847 167.049C105.9 170.563 106.028 174.051 106.224 177.512L111.153 177.215ZM110.844 156.746C110.936 153.363 111.1 149.958 111.341 146.536L106.416 146.174C106.169 149.673 106.002 153.151 105.908 156.609L110.844 156.746ZM112.284 136.349C112.671 132.982 113.136 129.599 113.681 126.203L108.809 125.383C108.251 128.857 107.776 132.317 107.38 135.76L112.284 136.349ZM115.528 116.154C116.213 112.852 116.976 109.54 117.823 106.219L113.045 104.942C112.179 108.339 111.398 111.727 110.698 115.105L115.528 116.154ZM120.571 96.3825C121.555 93.1448 122.62 89.9004 123.771 86.6509L119.13 84.9265C117.953 88.2497 116.863 91.568 115.856 94.8799L120.571 96.3825ZM127.375 77.1538C128.636 74.0391 129.979 70.9213 131.405 67.8016L126.933 65.6565C125.476 68.8445 124.104 72.0314 122.814 75.2156L127.375 77.1538ZM135.862 58.5872C137.382 55.611 138.98 52.6344 140.66 49.6588L136.386 47.1259C134.671 50.1634 133.039 53.2027 131.487 56.2425L135.862 58.5872ZM145.84 40.9076C147.615 38.044 149.467 35.1823 151.4 32.3237L147.342 29.4425C145.372 32.3565 143.483 35.2747 141.672 38.1958L145.84 40.9076ZM157.213 24.0706C159.199 21.3609 161.259 18.655 163.396 15.9537L159.561 12.7676C157.386 15.5171 155.288 18.2724 153.265 21.0325L157.213 24.0706ZM169.817 8.12633C170.923 6.8243 172.048 5.52357 173.192 4.22429L169.526 0.835548C168.363 2.15651 167.219 3.47919 166.094 4.80346L169.817 8.12633Z" fill="#F01C1C"/>
</g>
</g>
</svg>
