<svg width="75" height="65" viewBox="0 0 75 65" fill="none" xmlns="http://www.w3.org/2000/svg">
<g id="Vector">
<path d="M10.7143 50.8113C10.7143 50.087 10.4492 49.4602 9.91908 48.9309C9.38895 48.4017 8.76116 48.137 8.03571 48.137C7.31027 48.137 6.68248 48.4017 6.15234 48.9309C5.62221 49.4602 5.35714 50.087 5.35714 50.8113C5.35714 51.5356 5.62221 52.1624 6.15234 52.6917C6.68248 53.2209 7.31027 53.4856 8.03571 53.4856C8.76116 53.4856 9.38895 53.2209 9.91908 52.6917C10.4492 52.1624 10.7143 51.5356 10.7143 50.8113ZM69.6429 26.7428C69.6429 25.3221 69.0988 24.0755 68.0106 23.003C66.9224 21.9305 65.6808 21.3942 64.2857 21.3942H40.1786C40.1786 20.8371 40.3878 20.1616 40.8064 19.3676C41.2249 18.5737 41.6853 17.8076 42.1875 17.0694C42.6897 16.3312 43.1501 15.3841 43.5686 14.228C43.9872 13.0719 44.1964 11.895 44.1964 10.6971C44.1964 8.83069 43.5756 7.47266 42.334 6.62302C41.0924 5.77338 39.481 5.34856 37.5 5.34856C36.8304 5.34856 35.5748 7.28462 33.7333 11.1568C33.0636 12.3825 32.5474 13.2878 32.1847 13.8728C31.0686 15.6557 29.5061 17.6753 27.4972 19.9317C25.5162 22.1882 24.1071 23.6646 23.2701 24.361C21.3449 25.9489 19.3917 26.7428 17.4107 26.7428H16.0714V53.4856H17.4107C19.4196 53.4856 21.7494 53.9313 24.4001 54.8227C27.0508 55.7141 29.7503 56.6056 32.4986 57.497C35.2469 58.3884 37.7511 58.8341 40.0112 58.8341C45.2846 58.8341 47.9213 56.5081 47.9213 51.8559C47.9213 51.1317 47.8516 50.3517 47.7121 49.5159C48.5491 49.0702 49.2118 48.339 49.7001 47.3222C50.1883 46.3054 50.4325 45.2817 50.4325 44.251C50.4325 43.2202 50.1814 42.2592 49.6791 41.3678C51.1579 39.9749 51.8973 38.3174 51.8973 36.3953C51.8973 35.6988 51.7578 34.9258 51.4788 34.0762C51.1998 33.2265 50.851 32.5649 50.4325 32.0913H64.2857C65.7366 32.0913 66.9922 31.5621 68.0525 30.5035C69.1127 29.4449 69.6429 28.1914 69.6429 26.7428ZM75 26.701C75 29.626 73.9467 32.1471 71.8401 34.2642C69.7335 36.3813 67.2154 37.4399 64.2857 37.4399H57.2126C57.101 39.167 56.5848 40.8245 55.6641 42.4124C55.7478 42.9974 55.7896 43.5963 55.7896 44.2092C55.7896 47.0227 54.9526 49.502 53.2785 51.647C53.3064 55.5191 52.1205 58.5765 49.721 60.819C47.3214 63.0614 44.1546 64.1827 40.2204 64.1827C36.5095 64.1827 32.0173 63.2216 26.7439 61.2995C22.168 59.6559 19.0569 58.8341 17.4107 58.8341H5.35714C3.87835 58.8341 2.61579 58.3118 1.56948 57.2672C0.523158 56.2225 0 54.962 0 53.4856V26.7428C0 25.2664 0.523158 24.0058 1.56948 22.9612C2.61579 21.9166 3.87835 21.3942 5.35714 21.3942H17.4107C17.6897 21.3942 17.9897 21.3316 18.3105 21.2062C18.6314 21.0808 18.9593 20.8858 19.2941 20.6212C19.6289 20.3566 19.9428 20.1058 20.2358 19.8691C20.5287 19.6323 20.8636 19.3189 21.2402 18.9289C21.6169 18.5389 21.9029 18.2394 22.0982 18.0305C22.2935 17.8216 22.5586 17.5221 22.8934 17.1321C23.2282 16.7421 23.4235 16.5053 23.4794 16.4217C25.293 14.3603 26.6881 12.5635 27.6646 11.0314C28.0273 10.4464 28.4877 9.58283 29.0458 8.44069C29.6038 7.29855 30.12 6.2957 30.5943 5.43213C31.0686 4.56856 31.6336 3.69106 32.2893 2.79964C32.945 1.90821 33.7123 1.21875 34.5912 0.731248C35.4701 0.243749 36.4397 0 37.5 0C40.9877 0 43.8686 0.933212 46.1426 2.79964C48.4166 4.66606 49.5536 7.29855 49.5536 10.6971C49.5536 12.5914 49.2467 14.3742 48.6328 16.0457H64.2857C67.1875 16.0457 69.6987 17.1042 71.8192 19.2214C73.9397 21.3385 75 23.8317 75 26.701Z" fill="white"/>
<path d="M10.7143 50.8113C10.7143 50.087 10.4492 49.4602 9.91908 48.9309C9.38895 48.4017 8.76116 48.137 8.03571 48.137C7.31027 48.137 6.68248 48.4017 6.15234 48.9309C5.62221 49.4602 5.35714 50.087 5.35714 50.8113C5.35714 51.5356 5.62221 52.1624 6.15234 52.6917C6.68248 53.2209 7.31027 53.4856 8.03571 53.4856C8.76116 53.4856 9.38895 53.2209 9.91908 52.6917C10.4492 52.1624 10.7143 51.5356 10.7143 50.8113ZM69.6429 26.7428C69.6429 25.3221 69.0988 24.0755 68.0106 23.003C66.9224 21.9305 65.6808 21.3942 64.2857 21.3942H40.1786C40.1786 20.8371 40.3878 20.1616 40.8064 19.3676C41.2249 18.5737 41.6853 17.8076 42.1875 17.0694C42.6897 16.3312 43.1501 15.3841 43.5686 14.228C43.9872 13.0719 44.1964 11.895 44.1964 10.6971C44.1964 8.83069 43.5756 7.47266 42.334 6.62302C41.0924 5.77338 39.481 5.34856 37.5 5.34856C36.8304 5.34856 35.5748 7.28462 33.7333 11.1568C33.0636 12.3825 32.5474 13.2878 32.1847 13.8728C31.0686 15.6557 29.5061 17.6753 27.4972 19.9317C25.5162 22.1882 24.1071 23.6646 23.2701 24.361C21.3449 25.9489 19.3917 26.7428 17.4107 26.7428H16.0714V53.4856H17.4107C19.4196 53.4856 21.7494 53.9313 24.4001 54.8227C27.0508 55.7141 29.7503 56.6056 32.4986 57.497C35.2469 58.3884 37.7511 58.8341 40.0112 58.8341C45.2846 58.8341 47.9213 56.5081 47.9213 51.8559C47.9213 51.1317 47.8516 50.3517 47.7121 49.5159C48.5491 49.0702 49.2118 48.339 49.7001 47.3222C50.1883 46.3054 50.4325 45.2817 50.4325 44.251C50.4325 43.2202 50.1814 42.2592 49.6791 41.3678C51.1579 39.9749 51.8973 38.3174 51.8973 36.3953C51.8973 35.6988 51.7578 34.9258 51.4788 34.0762C51.1998 33.2265 50.851 32.5649 50.4325 32.0913H64.2857C65.7366 32.0913 66.9922 31.5621 68.0525 30.5035C69.1127 29.4449 69.6429 28.1914 69.6429 26.7428ZM75 26.701C75 29.626 73.9467 32.1471 71.8401 34.2642C69.7335 36.3813 67.2154 37.4399 64.2857 37.4399H57.2126C57.101 39.167 56.5848 40.8245 55.6641 42.4124C55.7478 42.9974 55.7896 43.5963 55.7896 44.2092C55.7896 47.0227 54.9526 49.502 53.2785 51.647C53.3064 55.5191 52.1205 58.5765 49.721 60.819C47.3214 63.0614 44.1546 64.1827 40.2204 64.1827C36.5095 64.1827 32.0173 63.2216 26.7439 61.2995C22.168 59.6559 19.0569 58.8341 17.4107 58.8341H5.35714C3.87835 58.8341 2.61579 58.3118 1.56948 57.2672C0.523158 56.2225 0 54.962 0 53.4856V26.7428C0 25.2664 0.523158 24.0058 1.56948 22.9612C2.61579 21.9166 3.87835 21.3942 5.35714 21.3942H17.4107C17.6897 21.3942 17.9897 21.3316 18.3105 21.2062C18.6314 21.0808 18.9593 20.8858 19.2941 20.6212C19.6289 20.3566 19.9428 20.1058 20.2358 19.8691C20.5287 19.6323 20.8636 19.3189 21.2402 18.9289C21.6169 18.5389 21.9029 18.2394 22.0982 18.0305C22.2935 17.8216 22.5586 17.5221 22.8934 17.1321C23.2282 16.7421 23.4235 16.5053 23.4794 16.4217C25.293 14.3603 26.6881 12.5635 27.6646 11.0314C28.0273 10.4464 28.4877 9.58283 29.0458 8.44069C29.6038 7.29855 30.12 6.2957 30.5943 5.43213C31.0686 4.56856 31.6336 3.69106 32.2893 2.79964C32.945 1.90821 33.7123 1.21875 34.5912 0.731248C35.4701 0.243749 36.4397 0 37.5 0C40.9877 0 43.8686 0.933212 46.1426 2.79964C48.4166 4.66606 49.5536 7.29855 49.5536 10.6971C49.5536 12.5914 49.2467 14.3742 48.6328 16.0457H64.2857C67.1875 16.0457 69.6987 17.1042 71.8192 19.2214C73.9397 21.3385 75 23.8317 75 26.701Z" fill="#FFC300"/>
</g>
</svg>
