<svg width="75" height="64" viewBox="0 0 75 64" fill="none" xmlns="http://www.w3.org/2000/svg">
<g id="Vector">
<path d="M64.2857 50.3274C64.2857 49.61 64.5508 48.9892 65.0809 48.4649C65.611 47.9407 66.2388 47.6786 66.9643 47.6786C67.6897 47.6786 68.3175 47.9407 68.8477 48.4649C69.3778 48.9892 69.6429 49.61 69.6429 50.3274C69.6429 51.0448 69.3778 51.6656 68.8477 52.1898C68.3175 52.7141 67.6897 52.9762 66.9643 52.9762C66.2388 52.9762 65.611 52.7141 65.0809 52.1898C64.5508 51.6656 64.2857 51.0448 64.2857 50.3274ZM5.35714 26.4881C5.35714 25.0809 5.90122 23.8462 6.9894 22.7839C8.07757 21.7216 9.3192 21.1905 10.7143 21.1905H34.8214C34.8214 20.6386 34.6122 19.9695 34.1936 19.1832C33.7751 18.3968 33.3147 17.638 32.8125 16.9069C32.3103 16.1757 31.8499 15.2376 31.4314 14.0925C31.0128 12.9474 30.8036 11.7817 30.8036 10.5952C30.8036 8.74659 31.4244 7.40149 32.666 6.55994C33.9076 5.71839 35.519 5.29762 37.5 5.29762C38.1696 5.29762 39.4252 7.21525 41.2667 11.0505C41.9364 12.2645 42.4526 13.1613 42.8153 13.7407C43.9314 15.5066 45.4939 17.507 47.5028 19.7419C49.4838 21.9768 50.8929 23.4392 51.7299 24.129C53.6551 25.7017 55.6083 26.4881 57.5893 26.4881H58.9286V52.9762H57.5893C55.5804 52.9762 53.2506 53.4177 50.5999 54.3006C47.9492 55.1835 45.2497 56.0665 42.5014 56.9494C39.7531 57.8323 37.2489 58.2738 34.9888 58.2738C29.7154 58.2738 27.0787 55.9699 27.0787 51.3621C27.0787 50.6447 27.1484 49.8721 27.2879 49.0444C26.4509 48.6029 25.7882 47.8786 25.2999 46.8715C24.8117 45.8644 24.5675 44.8504 24.5675 43.8295C24.5675 42.8086 24.8186 41.8567 25.3209 40.9738C23.8421 39.5942 23.1027 37.9525 23.1027 36.0486C23.1027 35.3588 23.2422 34.5932 23.5212 33.7516C23.8002 32.9101 24.149 32.2548 24.5675 31.7857H10.7143C9.26339 31.7857 8.00781 31.2615 6.94754 30.213C5.88728 29.1645 5.35714 27.9229 5.35714 26.4881ZM0 26.4467C0 29.3438 1.05329 31.8409 3.15987 33.9379C5.26646 36.0348 7.7846 37.0833 10.7143 37.0833H17.7874C17.899 38.794 18.4152 40.4357 19.3359 42.0085C19.2522 42.5879 19.2104 43.1811 19.2104 43.7881C19.2104 46.5749 20.0474 49.0306 21.7215 51.1551C21.6936 54.9904 22.8795 58.0186 25.279 60.2397C27.6786 62.4609 30.8454 63.5714 34.7796 63.5714C38.4905 63.5714 42.9827 62.6195 48.2561 60.7157C52.832 59.0878 55.9431 58.2738 57.5893 58.2738H69.6429C71.1217 58.2738 72.3842 57.7565 73.4305 56.7218C74.4768 55.6871 75 54.4386 75 52.9762V26.4881C75 25.0257 74.4768 23.7772 73.4305 22.7425C72.3842 21.7078 71.1217 21.1905 69.6429 21.1905H57.5893C57.3103 21.1905 57.0103 21.1284 56.6895 21.0042C56.3686 20.8801 56.0407 20.6869 55.7059 20.4248C55.3711 20.1627 55.0572 19.9144 54.7642 19.6798C54.4713 19.4453 54.1364 19.1349 53.7598 18.7486C53.3831 18.3623 53.0971 18.0657 52.9018 17.8588C52.7065 17.6518 52.4414 17.3552 52.1066 16.9689C51.7718 16.5827 51.5765 16.3481 51.5206 16.2653C49.707 14.2236 48.3119 12.4439 47.3354 10.9263C46.9727 10.3469 46.5123 9.49157 45.9542 8.3603C45.3962 7.22904 44.88 6.23574 44.4057 5.38039C43.9314 4.52505 43.3664 3.65591 42.7107 2.77297C42.055 1.89004 41.2877 1.20714 40.4088 0.724284C39.5299 0.241428 38.5603 0 37.5 0C34.0123 0 31.1314 0.924324 28.8574 2.77297C26.5834 4.62162 25.4464 7.22904 25.4464 10.5952C25.4464 12.4715 25.7533 14.2374 26.3672 15.8929H10.7143C7.8125 15.8929 5.30134 16.9413 3.1808 19.0383C1.06026 21.1353 0 23.6048 0 26.4467Z" fill="white"/>
<path d="M64.2857 50.3274C64.2857 49.61 64.5508 48.9892 65.0809 48.4649C65.611 47.9407 66.2388 47.6786 66.9643 47.6786C67.6897 47.6786 68.3175 47.9407 68.8477 48.4649C69.3778 48.9892 69.6429 49.61 69.6429 50.3274C69.6429 51.0448 69.3778 51.6656 68.8477 52.1898C68.3175 52.7141 67.6897 52.9762 66.9643 52.9762C66.2388 52.9762 65.611 52.7141 65.0809 52.1898C64.5508 51.6656 64.2857 51.0448 64.2857 50.3274ZM5.35714 26.4881C5.35714 25.0809 5.90122 23.8462 6.9894 22.7839C8.07757 21.7216 9.3192 21.1905 10.7143 21.1905H34.8214C34.8214 20.6386 34.6122 19.9695 34.1936 19.1832C33.7751 18.3968 33.3147 17.638 32.8125 16.9069C32.3103 16.1757 31.8499 15.2376 31.4314 14.0925C31.0128 12.9474 30.8036 11.7817 30.8036 10.5952C30.8036 8.74659 31.4244 7.40149 32.666 6.55994C33.9076 5.71839 35.519 5.29762 37.5 5.29762C38.1696 5.29762 39.4252 7.21525 41.2667 11.0505C41.9364 12.2645 42.4526 13.1613 42.8153 13.7407C43.9314 15.5066 45.4939 17.507 47.5028 19.7419C49.4838 21.9768 50.8929 23.4392 51.7299 24.129C53.6551 25.7017 55.6083 26.4881 57.5893 26.4881H58.9286V52.9762H57.5893C55.5804 52.9762 53.2506 53.4177 50.5999 54.3006C47.9492 55.1835 45.2497 56.0665 42.5014 56.9494C39.7531 57.8323 37.2489 58.2738 34.9888 58.2738C29.7154 58.2738 27.0787 55.9699 27.0787 51.3621C27.0787 50.6447 27.1484 49.8721 27.2879 49.0444C26.4509 48.6029 25.7882 47.8786 25.2999 46.8715C24.8117 45.8644 24.5675 44.8504 24.5675 43.8295C24.5675 42.8086 24.8186 41.8567 25.3209 40.9738C23.8421 39.5942 23.1027 37.9525 23.1027 36.0486C23.1027 35.3588 23.2422 34.5932 23.5212 33.7516C23.8002 32.9101 24.149 32.2548 24.5675 31.7857H10.7143C9.26339 31.7857 8.00781 31.2615 6.94754 30.213C5.88728 29.1645 5.35714 27.9229 5.35714 26.4881ZM0 26.4467C0 29.3438 1.05329 31.8409 3.15987 33.9379C5.26646 36.0348 7.7846 37.0833 10.7143 37.0833H17.7874C17.899 38.794 18.4152 40.4357 19.3359 42.0085C19.2522 42.5879 19.2104 43.1811 19.2104 43.7881C19.2104 46.5749 20.0474 49.0306 21.7215 51.1551C21.6936 54.9904 22.8795 58.0186 25.279 60.2397C27.6786 62.4609 30.8454 63.5714 34.7796 63.5714C38.4905 63.5714 42.9827 62.6195 48.2561 60.7157C52.832 59.0878 55.9431 58.2738 57.5893 58.2738H69.6429C71.1217 58.2738 72.3842 57.7565 73.4305 56.7218C74.4768 55.6871 75 54.4386 75 52.9762V26.4881C75 25.0257 74.4768 23.7772 73.4305 22.7425C72.3842 21.7078 71.1217 21.1905 69.6429 21.1905H57.5893C57.3103 21.1905 57.0103 21.1284 56.6895 21.0042C56.3686 20.8801 56.0407 20.6869 55.7059 20.4248C55.3711 20.1627 55.0572 19.9144 54.7642 19.6798C54.4713 19.4453 54.1364 19.1349 53.7598 18.7486C53.3831 18.3623 53.0971 18.0657 52.9018 17.8588C52.7065 17.6518 52.4414 17.3552 52.1066 16.9689C51.7718 16.5827 51.5765 16.3481 51.5206 16.2653C49.707 14.2236 48.3119 12.4439 47.3354 10.9263C46.9727 10.3469 46.5123 9.49157 45.9542 8.3603C45.3962 7.22904 44.88 6.23574 44.4057 5.38039C43.9314 4.52505 43.3664 3.65591 42.7107 2.77297C42.055 1.89004 41.2877 1.20714 40.4088 0.724284C39.5299 0.241428 38.5603 0 37.5 0C34.0123 0 31.1314 0.924324 28.8574 2.77297C26.5834 4.62162 25.4464 7.22904 25.4464 10.5952C25.4464 12.4715 25.7533 14.2374 26.3672 15.8929H10.7143C7.8125 15.8929 5.30134 16.9413 3.1808 19.0383C1.06026 21.1353 0 23.6048 0 26.4467Z" fill="#FFC300"/>
</g>
</svg>
